<?xml version="1.0" encoding="UTF-8"?>
<svg id="Layer_1" xmlns="http://www.w3.org/2000/svg" version="1.1" viewBox="0 0 158 50">
  <!-- Generator: Adobe Illustrator 29.3.1, SVG Export Plug-In . SVG Version: 2.1.0 Build 151)  -->
  <defs>
    <style>
      .st0 {
        fill: #fff;
      }
    </style>
  </defs>
  <path class="st0" d="M44.88,1.78h6.6c1.6,0,2.85.39,3.75,1.17.89.77,1.34,1.83,1.34,3.17s-.45,2.37-1.35,3.15c-.9.78-2.14,1.18-3.74,1.18h-3.41v5.88h-3.19V1.79h0ZM51.07,8.01c1.66,0,2.49-.63,2.49-1.88s-.83-1.9-2.49-1.9h-3v3.78s3,0,3,0Z"/>
  <path class="st0" d="M60.11,15.83c-.83-.43-1.46-1.06-1.9-1.88-.44-.82-.66-1.77-.66-2.86s.22-2.04.66-2.86,1.07-1.44,1.9-1.88c.83-.43,1.79-.65,2.89-.65s2.04.22,2.86.65,1.45,1.06,1.89,1.88c.44.82.66,1.77.66,2.86s-.22,2.04-.66,2.86-1.07,1.44-1.89,1.88c-.82.44-1.77.65-2.86.65s-2.07-.22-2.89-.65M64.75,13.38c.4-.5.6-1.27.6-2.29s-.2-1.77-.6-2.28-.98-.77-1.75-.77-1.37.25-1.77.77c-.41.51-.61,1.27-.61,2.28,0,2.03.8,3.04,2.39,3.04.76,0,1.35-.25,1.75-.76"/>
  <rect class="st0" x="70.39" y="1.29" width="3.08" height="15.03"/>
  <path class="st0" d="M75.89,1.11h3.29v2.9h-3.29s0-2.9,0-2.9ZM75.99,5.97h3.08v10.35h-3.08V5.97Z"/>
  <path class="st0" d="M85.46,8.28v4.02c0,.57.15.99.45,1.25.3.27.69.4,1.17.4.3,0,.64-.05,1.02-.14v2.39c-.49.19-1.08.29-1.77.29-1.28,0-2.26-.36-2.93-1.08-.67-.72-1.01-1.74-1.01-3.04v-4.08h-1.96v-2.31h1.96v-2.43l3.08-1v3.43h2.63v2.31h-2.63Z"/>
  <path class="st0" d="M98.97,11.4h-6.82c.06.97.3,1.67.76,2.12.45.44,1.12.66,2,.66.53,0,1.06-.09,1.6-.27.53-.18,1.02-.43,1.47-.77l.82,2.08c-.49.4-1.1.71-1.83.93-.73.23-1.46.34-2.19.34-1.74,0-3.11-.48-4.11-1.44s-1.49-2.27-1.49-3.93c0-1.05.22-1.98.65-2.81s1.03-1.46,1.81-1.92c.77-.46,1.65-.68,2.64-.68,1.46,0,2.61.47,3.45,1.42s1.27,2.22,1.27,3.83v.45h0ZM92.91,8.38c-.36.34-.59.84-.71,1.49h4.1c-.16-1.33-.83-2-1.98-2-.59,0-1.06.17-1.42.51M95.19,4.64h-1.9l2.02-4.21h3.02l-3.14,4.21h0Z"/>
  <path class="st0" d="M101.83,15.06c-.96-.95-1.44-2.25-1.44-3.9,0-1.07.23-2.02.7-2.85.46-.83,1.11-1.46,1.95-1.92.84-.46,1.81-.68,2.91-.68.75,0,1.48.12,2.19.35.71.23,1.27.54,1.7.94l-.82,2.14c-.41-.33-.86-.58-1.35-.77-.49-.18-.97-.28-1.43-.28-.84,0-1.5.25-1.97.77s-.71,1.25-.71,2.24.23,1.75.7,2.26c.46.51,1.12.77,1.98.77.46,0,.94-.09,1.43-.28s.94-.44,1.35-.77l.82,2.14c-.45.4-1.04.71-1.76.93-.72.23-1.48.34-2.27.34-1.69,0-3.01-.47-3.97-1.43"/>
  <path class="st0" d="M121.37,10.05v6.27h-3.08v-6.13c0-.72-.13-1.25-.4-1.58-.27-.33-.68-.5-1.25-.5-.68,0-1.23.22-1.63.65s-.61,1.02-.61,1.76v5.8h-3.08v-7.39c0-1.1-.06-2.09-.16-2.96h2.9l.2,1.64c.37-.61.85-1.08,1.44-1.41.59-.33,1.26-.49,2.01-.49,2.45,0,3.68,1.45,3.68,4.35"/>
  <path class="st0" d="M123.72,1.11h3.29v2.9h-3.29s0-2.9,0-2.9ZM123.82,5.97h3.08v10.35h-3.08V5.97Z"/>
  <path class="st0" d="M130.35,15.06c-.96-.95-1.44-2.25-1.44-3.9,0-1.07.23-2.02.7-2.85.46-.83,1.11-1.46,1.95-1.92.84-.46,1.81-.68,2.91-.68.75,0,1.48.12,2.19.35.71.23,1.27.54,1.7.94l-.82,2.14c-.41-.33-.86-.58-1.35-.77-.49-.18-.97-.28-1.43-.28-.84,0-1.5.25-1.97.77-.47.51-.71,1.25-.71,2.24s.23,1.75.7,2.26c.46.51,1.12.77,1.98.77.46,0,.94-.09,1.43-.28s.94-.44,1.35-.77l.82,2.14c-.45.4-1.03.71-1.76.93s-1.48.34-2.27.34c-1.69,0-3.01-.47-3.97-1.43"/>
  <path class="st0" d="M141.86,15.83c-.83-.43-1.46-1.06-1.9-1.88-.44-.82-.66-1.77-.66-2.86s.22-2.04.66-2.86,1.07-1.44,1.9-1.88c.83-.43,1.79-.65,2.89-.65s2.04.22,2.86.65c.82.44,1.45,1.06,1.89,1.88.44.82.66,1.77.66,2.86s-.22,2.04-.66,2.86-1.07,1.44-1.89,1.88c-.82.44-1.77.65-2.86.65s-2.07-.22-2.89-.65M146.5,13.38c.4-.5.6-1.27.6-2.29s-.2-1.77-.6-2.28-.98-.77-1.75-.77-1.37.25-1.77.77c-.41.51-.61,1.27-.61,2.28,0,2.03.8,3.04,2.39,3.04.76,0,1.35-.25,1.75-.76"/>
  <path class="st0" d="M55.71,20.35v15.03h-3.04v-1.53c-.31.53-.76.95-1.33,1.24s-1.22.45-1.94.45c-.89,0-1.67-.23-2.37-.68-.7-.46-1.24-1.1-1.62-1.92-.39-.83-.58-1.77-.58-2.83s.19-2,.58-2.81c.39-.81.93-1.43,1.61-1.88.69-.44,1.48-.66,2.38-.66.7,0,1.33.15,1.9.44.57.3,1.01.7,1.33,1.22v-6.07h3.08ZM52.05,32.41c.41-.53.61-1.28.61-2.25s-.21-1.71-.62-2.24c-.41-.53-1-.78-1.75-.78s-1.36.26-1.77.77c-.42.52-.63,1.25-.63,2.21s.21,1.74.63,2.28c.42.54,1.01.81,1.77.81s1.35-.26,1.76-.79"/>
  <path class="st0" d="M67.49,30.46h-6.82c.06.97.3,1.67.76,2.12.45.44,1.12.66,2,.66.53,0,1.06-.09,1.6-.27.53-.18,1.02-.44,1.47-.77l.82,2.08c-.49.4-1.1.71-1.83.93-.73.23-1.46.34-2.19.34-1.74,0-3.11-.48-4.11-1.44s-1.49-2.27-1.49-3.93c0-1.05.22-1.98.65-2.81.43-.83,1.03-1.47,1.81-1.92.77-.46,1.65-.68,2.64-.68,1.46,0,2.61.47,3.45,1.42s1.27,2.22,1.27,3.83v.45h0ZM61.44,27.44c-.36.34-.59.84-.71,1.49h4.1c-.16-1.33-.83-2-1.98-2-.59,0-1.06.17-1.42.51"/>
  <polygon class="st0" points="78.72 35.38 78.72 23.43 74.17 23.43 74.17 20.84 86.51 20.84 86.51 23.43 81.95 23.43 81.95 35.38 78.72 35.38"/>
  <path class="st0" d="M88.4,34.89c-.83-.43-1.46-1.06-1.9-1.88-.44-.82-.66-1.77-.66-2.86s.22-2.04.66-2.86,1.07-1.44,1.9-1.88c.83-.43,1.79-.65,2.89-.65s2.04.22,2.86.65c.82.44,1.45,1.06,1.89,1.88.44.82.66,1.77.66,2.86s-.22,2.04-.66,2.86c-.44.82-1.07,1.44-1.89,1.88-.82.44-1.77.65-2.86.65s-2.07-.22-2.89-.65M93.03,32.44c.4-.5.6-1.27.6-2.29s-.2-1.77-.6-2.28-.98-.77-1.75-.77-1.37.25-1.77.77c-.41.51-.61,1.27-.61,2.28,0,2.03.8,3.04,2.39,3.04.76,0,1.35-.25,1.75-.76"/>
  <path class="st0" d="M113.99,25.84c.58.71.87,1.81.87,3.28v6.27h-3.08v-6.17c0-.72-.12-1.24-.35-1.56-.23-.32-.61-.48-1.14-.48-.63,0-1.11.22-1.45.65s-.51,1.05-.51,1.84v5.72h-3.08v-6.17c0-.71-.12-1.23-.35-1.55-.24-.33-.62-.49-1.13-.49-.63,0-1.12.22-1.46.65s-.52,1.05-.52,1.84v5.72h-3.08v-7.39c0-1.1-.06-2.09-.16-2.96h2.9l.18,1.55c.31-.59.75-1.03,1.32-1.35.57-.31,1.22-.47,1.95-.47,1.54,0,2.56.64,3.06,1.92.34-.59.82-1.05,1.42-1.4.6-.35,1.27-.52,1.99-.52,1.18,0,2.07.36,2.65,1.07"/>
  <path class="st0" d="M127.66,25.03v10.35h-3.04v-1.53c-.31.53-.76.95-1.33,1.24s-1.22.45-1.94.45c-.9,0-1.69-.22-2.38-.65s-1.23-1.06-1.61-1.87c-.39-.81-.58-1.75-.58-2.81s.19-2.01.58-2.84.93-1.48,1.62-1.93c.7-.46,1.48-.68,2.37-.68.72,0,1.37.16,1.94.47s1.01.73,1.33,1.27v-1.47h3.04ZM124,32.42c.41-.52.61-1.27.61-2.25s-.2-1.73-.61-2.26c-.41-.53-1-.79-1.76-.79s-1.36.27-1.77.82c-.42.54-.63,1.3-.63,2.27s.21,1.71.62,2.22,1.01.77,1.79.77,1.35-.26,1.76-.77"/>
  <path class="st0" d="M137.28,24.99l-.02,2.82c-.5-.23-1.01-.35-1.51-.35-.82,0-1.44.22-1.87.66s-.65,1.06-.65,1.85v5.41h-3.08v-7.39c0-1.1-.06-2.09-.16-2.96h2.9l.2,1.78c.26-.65.66-1.15,1.22-1.5.55-.35,1.18-.52,1.87-.52.44,0,.8.07,1.1.2"/>
  <path class="st0" d="M44.96,40.36h2.98c.74,0,1.31.18,1.73.53.41.35.62.84.62,1.46s-.21,1.11-.62,1.47c-.41.36-.99.54-1.72.54h-1.74v2.87h-1.24v-6.87h0ZM47.8,43.4c.43,0,.76-.09.98-.27.22-.18.33-.43.33-.77s-.11-.6-.33-.77-.55-.27-.98-.27h-1.59v2.07h1.59Z"/>
  <path class="st0" d="M52.02,47c-.38-.21-.66-.5-.87-.88s-.3-.83-.3-1.35.1-.96.3-1.35.49-.68.87-.88c.38-.21.81-.31,1.31-.31s.92.1,1.29.31c.37.21.66.5.86.88s.3.83.3,1.35-.1.96-.3,1.35-.49.68-.86.88c-.37.21-.8.31-1.29.31s-.93-.1-1.31-.31M54.26,45.97c.22-.27.32-.66.32-1.19s-.11-.92-.33-1.19c-.22-.27-.53-.41-.93-.41s-.72.14-.94.41-.33.67-.33,1.19.11.93.32,1.19.53.4.93.4.72-.13.94-.4"/>
  <rect class="st0" x="56.83" y="40.13" width="1.2" height="7.1"/>
  <path class="st0" d="M66.17,43.27v2.18c0,.57.27.86.8.86.15,0,.31-.03.48-.08v.95c-.21.08-.47.12-.77.12-.55,0-.98-.16-1.27-.47s-.44-.75-.44-1.33v-2.24h-.94v-.91h.94v-1.19l1.21-.41v1.59h1.29v.91h-1.3Z"/>
  <path class="st0" d="M72.56,44.86h-3.36c.03.52.16.9.39,1.15.24.25.59.37,1.05.37.53,0,1.03-.18,1.48-.52l.35.83c-.23.19-.52.34-.85.45-.34.11-.68.17-1.03.17-.8,0-1.42-.23-1.88-.67-.46-.45-.69-1.07-.69-1.85,0-.49.1-.94.3-1.32s.48-.69.84-.9c.36-.22.77-.32,1.23-.32.67,0,1.2.22,1.59.65s.59,1.03.59,1.79v.18h0ZM69.63,43.39c-.2.19-.33.47-.39.83h2.27c-.04-.36-.15-.65-.33-.83-.18-.19-.44-.28-.76-.28s-.59.1-.79.29"/>
  <path class="st0" d="M74.47,47c-.37-.21-.66-.5-.86-.87-.2-.38-.3-.82-.3-1.33s.11-.95.31-1.34.51-.69.89-.9c.38-.22.83-.32,1.33-.32.35,0,.68.06,1.01.17s.59.26.78.45l-.34.85c-.21-.17-.42-.3-.65-.38s-.46-.13-.69-.13c-.44,0-.78.14-1.02.41s-.37.67-.37,1.18.12.91.36,1.18c.24.27.59.41,1.03.41.23,0,.45-.05.69-.13.23-.09.45-.22.65-.39l.34.85c-.21.19-.47.35-.8.45-.33.11-.67.17-1.03.17-.51,0-.95-.1-1.32-.31"/>
  <path class="st0" d="M82.98,44.24v2.99h-1.21v-2.94c0-.39-.07-.67-.22-.84-.15-.18-.38-.27-.69-.27-.36,0-.66.12-.89.35-.23.24-.34.54-.34.93v2.76h-1.2v-7.1h1.2v2.93c.17-.26.39-.47.66-.61s.59-.22.93-.22c1.17,0,1.75.67,1.75,2.01"/>
  <path class="st0" d="M88.79,44.24v2.99h-1.21v-2.94c0-.39-.07-.67-.22-.84-.15-.18-.38-.27-.69-.27-.37,0-.66.12-.89.35-.23.24-.34.54-.34.93v2.76h-1.2v-3.49c0-.52-.03-.97-.08-1.38h1.13l.09.8c.17-.3.39-.53.68-.69.29-.16.61-.24.97-.24,1.17,0,1.75.67,1.75,2.01"/>
  <path class="st0" d="M90,40.15h1.34v1.18h-1.34v-1.18ZM90.07,42.36h1.2v4.87h-1.2v-4.87h0Z"/>
  <path class="st0" d="M93.48,47c-.37-.21-.66-.5-.86-.87-.2-.38-.3-.82-.3-1.33s.11-.95.31-1.34c.21-.39.51-.69.89-.9s.83-.32,1.33-.32c.35,0,.68.06,1.01.17.32.11.59.26.78.45l-.34.85c-.21-.17-.42-.3-.65-.38s-.46-.13-.69-.13c-.44,0-.78.14-1.02.41s-.37.67-.37,1.18.12.91.36,1.18c.24.27.59.41,1.03.41.23,0,.45-.05.69-.13.23-.09.45-.22.65-.39l.34.85c-.21.19-.47.35-.8.45-.33.11-.67.17-1.03.17-.51,0-.95-.1-1.32-.31"/>
  <path class="st0" d="M100.87,46.59c-.48-.48-.73-1.2-.73-2.14v-4.09h1.23v4.16c0,.59.14,1.04.41,1.35s.69.46,1.24.46.94-.15,1.22-.46.42-.76.42-1.34v-4.16h1.23v4.09c0,.93-.24,1.65-.73,2.13s-1.2.73-2.13.73-1.66-.24-2.15-.73"/>
  <path class="st0" d="M111.77,44.24v2.99h-1.21v-2.94c0-.39-.07-.67-.22-.84s-.38-.27-.69-.27c-.37,0-.66.12-.89.35-.23.24-.34.54-.34.93v2.76h-1.2v-3.49c0-.52-.03-.97-.08-1.38h1.13l.09.8c.17-.3.39-.53.68-.69.29-.16.61-.24.97-.24,1.17,0,1.75.67,1.75,2.01"/>
  <path class="st0" d="M112.98,40.15h1.34v1.18h-1.34v-1.18ZM113.06,42.36h1.2v4.87h-1.2v-4.87h0Z"/>
  <polygon class="st0" points="118.99 42.37 120.19 42.37 118.05 47.24 117 47.24 114.9 42.37 116.16 42.37 117.56 45.87 118.99 42.37"/>
  <path class="st0" d="M124.99,44.86h-3.36c.02.52.16.9.39,1.15s.59.37,1.05.37c.53,0,1.03-.18,1.48-.52l.35.83c-.23.19-.52.34-.85.45s-.68.17-1.03.17c-.8,0-1.42-.23-1.88-.67-.46-.45-.69-1.07-.69-1.85,0-.49.1-.94.3-1.32s.48-.69.84-.9.77-.32,1.23-.32c.67,0,1.2.22,1.59.65s.59,1.03.59,1.79v.18h0ZM122.06,43.39c-.2.19-.33.47-.39.83h2.27c-.04-.36-.15-.65-.33-.83-.18-.19-.44-.28-.76-.28s-.59.1-.79.29"/>
  <path class="st0" d="M129.12,42.32v1.1c-.22-.08-.43-.12-.65-.12-.41,0-.72.12-.94.35-.22.24-.32.55-.32.95v2.64h-1.2v-3.49c0-.52-.03-.97-.08-1.38h1.13l.1.86c.12-.31.31-.56.58-.72.26-.17.56-.25.9-.25.19,0,.35.03.48.08"/>
  <path class="st0" d="M129.43,46.7l.34-.85c.52.39,1.12.58,1.78.58.29,0,.51-.05.67-.14.16-.1.24-.23.24-.41,0-.15-.06-.27-.17-.35s-.3-.16-.56-.23l-.81-.18c-.89-.19-1.33-.65-1.33-1.36,0-.3.08-.56.25-.79.17-.23.4-.41.71-.53s.65-.19,1.05-.19c.35,0,.68.06,1,.16.32.11.6.26.85.46l-.35.82c-.49-.36-.99-.54-1.51-.54-.28,0-.49.05-.65.16-.15.1-.23.24-.23.42,0,.14.05.25.14.34.09.08.25.16.48.21l.83.18c.48.11.83.28,1.06.51s.33.53.33.89c0,.45-.18.81-.54,1.07s-.85.4-1.48.4c-.88,0-1.58-.21-2.1-.62"/>
  <path class="st0" d="M134.51,40.15h1.34v1.18h-1.34v-1.18ZM134.58,42.36h1.2v4.87h-1.2v-4.87h0Z"/>
  <path class="st0" d="M138.64,43.27v2.18c0,.57.27.86.8.86.15,0,.31-.03.48-.08v.95c-.21.08-.47.12-.77.12-.55,0-.98-.16-1.27-.47s-.44-.75-.44-1.33v-2.24h-.94v-.91h.94v-1.19l1.21-.41v1.59h1.29v.91h-1.3Z"/>
  <path class="st0" d="M145.46,42.36l-2.27,5.2c-.26.6-.59,1.05-.99,1.32-.4.28-.89.46-1.48.55l-.27-.93c.46-.1.8-.24,1.03-.39.23-.16.41-.39.55-.7l.15-.35-2.03-4.7h1.26l1.4,3.5,1.43-3.5h1.21Z"/>
  <path class="st0" d="M63.91,42.36l-2.27,5.2c-.26.6-.59,1.05-.99,1.32-.4.28-.89.46-1.48.55l-.27-.93c.46-.1.8-.24,1.03-.39s.41-.39.55-.7l.15-.35-2.03-4.7h1.26l1.4,3.5,1.43-3.5h1.21Z"/>
  <path class="st0" d="M1.35,1.55v17.04c0,9.41,7.63,17.04,17.04,17.04s17.04-7.63,17.04-17.04V1.55s-34.09,0-34.09,0ZM18.21,19.22c0,3.05-1.52,7.54-4.92,10.7l-.23.21-.28-.14c-.66-.33-1.31-.72-1.91-1.16l-.59-.44.66-.33c3.07-1.53,5.19-4.4,5.73-7.75-3.35.54-6.22,2.66-7.75,5.73l-.33.66-.44-.59c-.44-.6-.83-1.24-1.16-1.91l-.14-.28.21-.23c3.16-3.4,7.65-4.92,10.7-4.92h.45v.45h0ZM18.21,18.41h-.45c-3.05,0-7.54-1.52-10.7-4.92l-.21-.23.14-.28c.33-.66.72-1.31,1.16-1.91l.44-.59.33.66c1.53,3.07,4.4,5.19,7.75,5.73-.54-3.35-2.66-6.22-5.73-7.75l-.66-.33.59-.44c.6-.44,1.24-.83,1.91-1.16l.28-.14.23.21c3.4,3.16,4.92,7.65,4.92,10.7,0,0,0,.45,0,.45ZM18.56,17.97c0-3.05,1.52-7.54,4.92-10.7l.23-.21.28.14c.66.33,1.31.72,1.91,1.16l.59.44-.66.33c-3.07,1.53-5.19,4.4-5.73,7.75,3.35-.54,6.22-2.66,7.75-5.73l.33-.66.44.59c.44.6.83,1.24,1.16,1.91l.14.28-.21.23c-3.16,3.4-7.65,4.92-10.7,4.92h-.45v-.45h0ZM29.79,24.19c-.33.67-.72,1.31-1.16,1.91l-.44.59-.33-.66c-1.53-3.07-4.4-5.19-7.75-5.73.54,3.35,2.66,6.22,5.73,7.75l.66.33-.59.44c-.59.44-1.24.83-1.91,1.16l-.28.14-.23-.21c-3.4-3.16-4.92-7.65-4.92-10.7v-.45h.45c3.05,0,7.54,1.52,10.7,4.92l.21.23-.14.28h0Z"/>
  <path class="st0" d="M5.85,39.98c-2.54,0-4.6,2.06-4.6,4.6s2.06,4.6,4.6,4.6,4.6-2.06,4.6-4.6-2.06-4.6-4.6-4.6"/>
</svg>